<?xml version="1.0" standalone="no"?>
<!DOCTYPE svg PUBLIC "-//W3C//DTD SVG 20010904//EN"
 "http://www.w3.org/TR/2001/REC-SVG-20010904/DTD/svg10.dtd">
<svg version="1.0" xmlns="http://www.w3.org/2000/svg"
 width="180.000000pt" height="180.000000pt" viewBox="0 0 180.000000 180.000000"
 preserveAspectRatio="xMidYMid meet">

<g transform="translate(0.000000,180.000000) scale(0.100000,-0.100000)"
fill="#000000" stroke="none">
<path d="M443 1454 c-65 -55 -115 -105 -119 -119 -3 -13 -4 -74 -2 -135 4
-143 0 -140 165 -140 l123 0 0 -394 c0 -354 2 -395 17 -407 12 -11 55 -14 173
-14 l156 0 117 98 117 98 2 306 3 307 27 7 c30 8 243 181 252 205 3 9 6 66 6
128 0 85 -4 117 -16 134 l-15 22 -447 0 -447 0 -112 -96z m1013 61 c20 -31 17
-232 -5 -258 -11 -14 -35 -17 -142 -17 l-129 0 0 -394 c0 -354 -2 -395 -17
-407 -23 -20 -303 -20 -326 0 -15 12 -17 53 -17 407 l0 394 -129 0 c-163 0
-161 -2 -161 150 0 79 4 111 16 128 l15 22 439 0 440 0 16 -25z"/>
<path d="M833 1393 l157 -4 0 -409 c0 -267 3 -410 10 -410 7 0 10 143 10 410
l0 409 158 4 c86 1 11 3 -168 3 -179 0 -254 -2 -167 -3z"/>
</g>
</svg>
